<svg width="32" height="32" viewBox="0 0 32 32" fill="none" xmlns="http://www.w3.org/2000/svg">
<circle cx="16" cy="16" r="16" fill="#1D6A92"/>
<path d="M15.9654 24.381C11.1342 24.381 7.44482 20.8819 7.44482 15.8896C7.44482 10.8973 11.1342 7.39832 15.9654 7.39832C18.8642 7.39832 20.8553 8.27673 22.1143 9.56507C23.0952 10.5752 23.3734 11.5561 23.3734 12.4199C23.3734 13.7229 22.4657 14.7184 21.1481 14.7184C20.05 14.7184 19.3034 14.2499 18.5128 13.4301C17.8247 12.7274 17.0634 12.376 16.1411 12.376C14.4575 12.376 13.052 13.7961 13.052 15.8896C13.052 17.9832 14.4575 19.4033 16.1411 19.4033C17.3855 19.4033 18.0151 18.9348 18.6446 18.1881C19.3327 17.3683 19.9915 17.0023 21.0163 17.0023C22.3046 17.0023 23.4026 18.0125 23.4026 19.3301C23.4026 20.1646 23.0513 21.1748 22.0704 22.1849C20.7967 23.4879 18.6007 24.381 15.9654 24.381Z" fill="#F8F5F1"/>
<path fill-rule="evenodd" clip-rule="evenodd" d="M16 26.6364C21.8743 26.6364 26.6364 21.8743 26.6364 16C26.6364 10.1257 21.8743 5.36364 16 5.36364C10.1257 5.36364 5.36364 10.1257 5.36364 16C5.36364 21.8743 10.1257 26.6364 16 26.6364ZM16 29C23.1797 29 29 23.1797 29 16C29 8.8203 23.1797 3 16 3C8.8203 3 3 8.8203 3 16C3 23.1797 8.8203 29 16 29Z" fill="#F8F5F1"/>
</svg>
