<svg width="215" height="60" viewBox="0 0 215 60" fill="none" xmlns="http://www.w3.org/2000/svg">
<path d="M182.649 28.9106V39.3852C182.649 42.2465 180.733 44.2369 177.996 44.2369C175.26 44.2369 173.344 42.2465 173.344 39.3852V20.4761C173.344 17.6148 175.26 15.6244 177.996 15.6244C179.987 15.6244 181.554 16.6943 182.251 18.3861C183.918 16.2962 186.331 15.5 188.819 15.5C190.909 15.5 192.601 16.2713 193.771 17.3412C195.363 18.8091 196.159 20.8244 196.159 22.9144C196.159 26.0742 194.467 28.2388 191.307 28.2388C189.64 28.2388 188.372 27.0694 187.75 26.1737C187.053 25.1785 186.331 24.4321 185.212 24.4321C184.217 24.4321 182.649 24.8799 182.649 28.9106Z" fill="#F8F5F1"/>
<path d="M155.476 44.3613C146.818 44.3613 140.523 38.7881 140.523 29.9307C140.523 21.0732 146.818 15.5 155.476 15.5C164.135 15.5 170.43 21.0732 170.43 29.9307C170.43 38.7881 164.135 44.3613 155.476 44.3613ZM150.053 29.9307C150.053 33.4388 152.292 35.902 155.476 35.902C158.661 35.902 160.9 33.4388 160.9 29.9307C160.9 26.4225 158.661 23.9594 155.476 23.9594C152.292 23.9594 150.053 26.4225 150.053 29.9307Z" fill="#F8F5F1"/>
<path d="M115.292 44.2369C112.555 44.2369 110.639 42.2465 110.639 39.3852V20.4761C110.639 17.6148 112.555 15.6244 115.292 15.6244C117.257 15.6244 118.8 16.6445 119.521 18.3115C121.089 16.4703 123.776 15.5 126.662 15.5C133.28 15.5 137.983 19.7048 137.983 27.1938V39.3852C137.983 42.1967 136.042 44.2369 133.33 44.2369C130.568 44.2369 128.677 42.147 128.677 39.3852V28.4876C128.677 25.5766 127.035 23.8847 124.323 23.8847C121.661 23.8847 119.944 25.6761 119.944 28.4876V39.3852C119.944 42.2465 118.028 44.2369 115.292 44.2369Z" fill="#F8F5F1"/>
<path d="M83.4167 44.2369C80.6798 44.2369 78.764 42.2465 78.764 39.3852V20.4761C78.764 17.6148 80.6798 15.6244 83.4167 15.6244C85.3822 15.6244 86.9248 16.6445 87.6464 18.3115C89.2138 16.4703 91.9009 15.5 94.7871 15.5C101.405 15.5 106.108 19.7048 106.108 27.1938V39.3852C106.108 42.1967 104.167 44.2369 101.455 44.2369C98.6933 44.2369 96.8024 42.147 96.8024 39.3852V28.4876C96.8024 25.5766 95.1603 23.8847 92.4483 23.8847C89.7861 23.8847 88.0693 25.6761 88.0693 28.4876V39.3852C88.0693 42.2465 86.1535 44.2369 83.4167 44.2369Z" fill="#F8F5F1"/>
<path d="M60.8969 44.3613C52.2385 44.3613 45.9437 38.7881 45.9437 29.9307C45.9437 21.0732 52.2385 15.5 60.8969 15.5C69.5553 15.5 75.85 21.0732 75.85 29.9307C75.85 38.7881 69.5553 44.3613 60.8969 44.3613ZM55.4729 29.9307C55.4729 33.4388 57.7122 35.902 60.8969 35.902C64.0816 35.902 66.3208 33.4388 66.3208 29.9307C66.3208 26.4225 64.0816 23.9594 60.8969 23.9594C57.7122 23.9594 55.4729 26.4225 55.4729 29.9307Z" fill="#F8F5F1"/>
<path d="M32.4804 44.3613C24.2699 44.3613 18 38.4149 18 29.9307C18 21.4464 24.2699 15.5 32.4804 15.5C37.4068 15.5 40.7905 16.9928 42.9302 19.1823C44.5972 20.8991 45.0699 22.5661 45.0699 24.034C45.0699 26.2484 43.5274 27.9402 41.2881 27.9402C39.4221 27.9402 38.1532 27.1441 36.8096 25.7508C35.6402 24.5565 34.3465 23.9594 32.779 23.9594C29.9177 23.9594 27.5292 26.3728 27.5292 29.9307C27.5292 33.4886 29.9177 35.902 32.779 35.902C34.8938 35.902 35.9637 35.1058 37.0336 33.8369C38.2029 32.4436 39.3226 31.8216 41.0642 31.8216C43.2537 31.8216 45.1197 33.5383 45.1197 35.7776C45.1197 37.1958 44.5226 38.9125 42.8556 40.6293C40.691 42.8436 36.9589 44.3613 32.4804 44.3613Z" fill="#F8F5F1"/>
<rect x="3.5" y="4" width="208" height="52" rx="26" stroke="#F8F5F1" stroke-width="7"/>
</svg>
