<svg width="24" height="25" viewBox="0 0 24 25" fill="none" xmlns="http://www.w3.org/2000/svg">
<g clip-path="url(#clip0_60_375)">
<path d="M22.8539 5.075H19.4249V1.64375H20.5724V0.5H4.56894V9.65H3.42894V10.79H4.56894V13.0775H3.42894V10.79H2.28894V19.9325H3.42894V21.0725H4.56894V24.5H23.9999V3.93125H22.8524L22.8539 5.075ZM5.71644 14.2137H9.14394V17.6413H6.85644V19.9287H5.71644V14.2137ZM22.8539 23.3563H5.71644V21.0688H19.4249V19.9287H20.5724V14.2137H19.4249V13.0737H5.71644V1.64375H18.2864V6.21125H22.8539V23.3563ZM13.7114 15.3538V18.7887H12.5714V19.9287H10.2839V14.2137H12.5714V15.3538H13.7114ZM18.2864 16.5012V17.6413H15.9989V19.9287H14.8589V14.2137H18.2864V15.3538H15.9989V16.5012H18.2864Z" fill="#D41111"/>
<path d="M21.714 2.78375H22.854V3.93125H21.714V2.78375Z" fill="#D41111"/>
<path d="M20.574 1.64374H21.714V2.78374H20.574V1.64374Z" fill="#D41111"/>
<path d="M11.4314 15.3538H12.5714V18.7888H11.4314V15.3538Z" fill="#D41111"/>
<path d="M6.85645 15.3538H8.00394V16.5013H6.85645V15.3538Z" fill="#D41111"/>
</g>
<defs>
<clipPath id="clip0_60_375">
<rect width="24" height="24" fill="white" transform="translate(0 0.5)"/>
</clipPath>
</defs>
</svg>
