<svg width="49" height="49" viewBox="0 0 49 49" fill="none" xmlns="http://www.w3.org/2000/svg">
<path d="M24.4349 40.295C15.3298 40.295 8.37683 33.7007 8.37683 24.2921C8.37683 14.8836 15.3298 8.28928 24.4349 8.28928C29.8979 8.28928 33.6503 9.94475 36.0232 12.3728C37.8718 14.2766 38.396 16.1252 38.396 17.753C38.396 20.2087 36.6854 22.0849 34.2022 22.0849C32.1328 22.0849 30.7257 21.2019 29.2357 19.6568C27.939 18.3325 26.5042 17.6703 24.766 17.6703C21.593 17.6703 18.9442 20.3466 18.9442 24.2921C18.9442 28.2377 21.593 30.914 24.766 30.914C27.1112 30.914 28.2976 30.0311 29.4841 28.624C30.7809 27.0789 32.0225 26.3891 33.9538 26.3891C36.3819 26.3891 38.4512 28.2929 38.4512 30.7761C38.4512 32.3488 37.789 34.2526 35.9404 36.1563C33.54 38.612 29.4013 40.295 24.4349 40.295Z" fill="#1D6A92"/>
<path fill-rule="evenodd" clip-rule="evenodd" d="M24.5 44.5455C35.5708 44.5455 44.5455 35.5708 44.5455 24.5C44.5455 13.4292 35.5708 4.45455 24.5 4.45455C13.4292 4.45455 4.45455 13.4292 4.45455 24.5C4.45455 35.5708 13.4292 44.5455 24.5 44.5455ZM24.5 49C38.031 49 49 38.031 49 24.5C49 10.969 38.031 0 24.5 0C10.969 0 0 10.969 0 24.5C0 38.031 10.969 49 24.5 49Z" fill="#1D6A92"/>
</svg>
